# xmcd
#
# Track frame offsets: 
#        150
#        18275
#        35175
#        62800
#
# Disc length: 1198 seconds
#
# Revision: 1
# Processed by: cddbd v1.5.2PL0 Copyright (c) Steve Scherf et al.
# Submitted via: ExactAudioCopy v0.99pb4
#
DISCID=3004ac04
DTITLE=Crazy Moon - Everybody Get Down CDM
DYEAR=1995
DGENRE=Eurodance
TTITLE0=Everybody Get Down (housestyle mix)
TTITLE1=Everybody Get Down (radio edit)
TTITLE2=Everybody Get Down (get down club mix)
TTITLE3=Everybody Get Down (hypnotic mix)
EXTD=
EXTT0=
EXTT1=
EXTT2=
EXTT3=
PLAYORDER=
